# xmcd CD database file
#
# Track frame offsets:
#	150
#	15716
#	38383
#	61845
#	94574
#	110381
#	129863
#	151728
#	172013
#	207595
#	224353
#	242253
#	255655
#
# Disc length: 3706 seconds
#
# Revision: 0
# Processed by: cddbd v1.5.1PL2 Copyright (c) Steve Scherf et al.
# Submitted via: CDex 1.51
#
DISCID=9d0e780d
DTITLE=doctor rhythm - medication time
DYEAR=1999
DGENRE=Blues
TTITLE0=bluesclub '63
TTITLE1=whole lotta nuthin'
TTITLE2=standing on the corner
TTITLE3=done it all before
TTITLE4=come on
TTITLE5=the hunter
TTITLE6=i'm so lonesome 
TTITLE7='cause you know
TTITLE8=in your arms
TTITLE9=rock the house
TTITLE10=motor city
TTITLE11=zing zing
TTITLE12=set me up
EXTD=YEAR: 1999
EXTT0=
EXTT1=
EXTT2=
EXTT3=
EXTT4=
EXTT5=
EXTT6=
EXTT7=
EXTT8=
EXTT9=
EXTT10=
EXTT11=
EXTT12=
PLAYORDER=
